Coordinates
version=1
nRows=10
nColumns=34
inDegrees=yes

Units are S.I. units (second, meters, Newtons, ...)
Angles are in degrees.

endheader
time	pelvis_tilt	pelvis_list	pelvis_rotation	pelvis_tx	pelvis_ty	pelvis_tz	hip_flexion_r	hip_adduction_r	hip_rotation_r	knee_angle_r	ankle_angle_r	subtalar_angle_r	mtp_angle_r	hip_flexion_l	hip_adduction_l	hip_rotation_l	knee_angle_l	socket_flexion	socket_adduction	socket_rotation	socket_tx	socket_ty	socket_tz	pros_ankle_rx	pros_ankle_ry	pros_ankle_rz	pros_ankle_tx	pros_ankle_ty	pros_ankle_tz	foot_flex	lumbar_extension	lumbar_bending	lumbar_rotation
      0.60000000	      0.93950553	     -5.10539648	      4.69964937	     -0.00521947	      1.02300889	      0.35253639	     19.28969461	      4.45076803	    -10.33049031	      4.10285129	     13.99120180	      9.82899053	      4.46689810	    -17.66812112	     -5.91326374	    -10.40775711	     -9.84933046	      4.31346342	     -0.85848613	     14.76184757	      0.00536810	     -0.01065458	      0.00756409	      0.00000000	      0.00000000	      0.00000000	      0.00000000	      0.00000000	      0.00000000	     14.60416293	     -9.79609572	     -0.26901317	    -26.88486663
      0.60416667	      0.90832385	     -5.16430195	      4.86657125	      0.00075257	      1.02172968	      0.35254224	     19.49391708	      4.47283310	    -10.20110718	      3.84017655	     13.89838349	      9.85123384	      4.56823508	    -17.81502949	     -6.08833782	    -10.38538071	     -9.99569858	      4.43719862	     -0.83378309	     14.86931987	      0.00590823	     -0.01061431	      0.00746654	      0.00000000	      0.00000000	      0.00000000	      0.00000000	      0.00000000	      0.00000000	     14.74001797	     -9.78092628	     -0.02943348	    -27.01803681
      0.60833333	      0.90734409	     -5.17873578	      5.06010552	      0.00683690	      1.02060974	      0.35250710	     19.60334508	      4.45048784	    -10.02487873	      3.61955542	     13.80652421	      9.88576390	      4.60550676	    -18.00487039	     -6.20291185	    -10.32084307	    -10.13712469	      4.57568060	     -0.85449778	     14.97165565	      0.00629654	     -0.01043658	      0.00761823	      0.00000000	      0.00000000	      0.00000000	      0.00000000	      0.00000000	      0.00000000	     14.80120798	     -9.72383280	      0.08935086	    -27.06039524
      0.61250000	      0.88787297	     -5.27534301	      5.19599144	      0.01291436	      1.01939072	      0.35255576	     19.84191964	      4.51407897	     -9.90035453	      3.16104734	     13.60644734	      9.87503878	      4.73272017	    -18.17328066	     -6.41319196	    -10.34603793	    -10.29498663	      4.71517746	     -0.83471527	     15.04414230	      0.00667195	     -0.01043351	      0.00748259	      0.00000000	      0.00000000	      0.00000000	      0.00000000	      0.00000000	      0.00000000	     14.88734383	     -9.72509947	      0.37715012	    -27.20403882
      0.61666667	      0.87766454	     -5.38366463	      5.35310288	      0.01905346	      1.01821896	      0.35258181	     20.05416277	      4.58766052	     -9.76979018	      2.67472934	     13.39209574	      9.86553012	      4.89185362	    -18.33439368	     -6.64015648	    -10.35075710	    -10.46300442	      4.86452760	     -0.81873763	     15.13368908	      0.00712916	     -0.01042343	      0.00744401	      0.00000000	      0.00000000	      0.00000000	      0.00000000	      0.00000000	      0.00000000	     14.93923900	     -9.69406965	      0.62645234	    -27.31111783
      0.62083333	      0.74641110	     -5.58499619	      5.56904424	      0.02541107	      1.01678407	      0.35252025	     20.49091787	      4.68914109	    -10.00363555	      1.99506496	     12.97057595	     10.18452192	      7.94353786	    -18.18074097	     -7.01927117	    -10.55577141	    -10.81767634	      5.04102540	     -0.83320962	     15.49186620	      0.00885798	     -0.01032129	      0.00710781	      0.00000000	      0.00000000	      0.00000000	      0.00000000	      0.00000000	      0.00000000	     14.97491597	     -9.43168823	      0.97895309	    -27.49873191
      0.62500000	      0.80916363	     -5.65316838	      5.70195847	      0.03160764	      1.01586120	      0.35252778	     20.62371941	      4.73388656	     -9.79561900	      1.41086209	     12.61734882	     10.14291147	      7.96196334	    -18.41737157	     -7.15135411	    -10.52886470	    -10.99532827	      5.21809489	     -0.86278939	     15.51282041	      0.00922939	     -0.01015296	      0.00751091	      0.00000000	      0.00000000	      0.00000000	      0.00000000	      0.00000000	      0.00000000	     15.00838587	     -9.45577432	      1.21536810	    -27.54806483
      0.62916667	      0.87229143	     -5.77128897	      5.80586005	      0.03781667	      1.01491126	      0.35258783	     20.82149984	      4.83273100	     -9.61234006	      0.68457317	     12.20009003	     10.03418167	      8.01624724	    -18.65436381	     -7.34468310	    -10.53598357	    -11.18488573	      5.40220775	     -0.87734891	     15.52447227	      0.00954411	     -0.01007228	      0.00775272	      0.00000000	      0.00000000	      0.00000000	      0.00000000	      0.00000000	      0.00000000	     15.01772081	     -9.52225895	      1.49700237	    -27.60134753
      0.63333333	      0.91785648	     -5.94645891	      5.90149577	      0.04405657	      1.01388017	      0.35271180	     21.06645614	      4.99201369	     -9.44472140	     -0.12539568	     11.74608439	      9.83550210	      8.17835822	    -18.85823033	     -7.64459118	    -10.57910227	    -11.39216335	      5.58188308	     -0.83945082	     15.54470311	      0.00994069	     -0.01020292	      0.00747363	      0.00000000	      0.00000000	      0.00000000	      0.00000000	      0.00000000	      0.00000000	     15.00384110	     -9.56561166	      1.80877364	    -27.62173704
      0.63750000	      0.96689573	     -6.11321008	      5.98705614	      0.05030034	      1.01293178	      0.35283649	     21.30717511	      5.14721015	     -9.26085812	     -0.96214758	     11.24082365	      9.64139316	      8.36799229	    -19.03407363	     -7.90580337	    -10.60603674	    -11.62525302	      5.79564083	     -0.82956013	     15.55645173	      0.01046006	     -0.01021875	      0.00749584	      0.00000000	      0.00000000	      0.00000000	      0.00000000	      0.00000000	      0.00000000	     14.97380198	     -9.58114266	      2.13576606	    -27.63136632
